<svg width="54" height="61" viewBox="0 0 54 61" fill="none" xmlns="http://www.w3.org/2000/svg">
<path d="M53.223 41.598C53.223 45.4183 51.0464 48.9048 47.6142 50.5823L31.0027 58.7014C28.2319 60.0557 24.9911 60.0557 22.2203 58.7014L5.60881 50.5823C2.17657 48.9048 5.16358e-06 45.4183 5.49755e-06 41.598L7.43064e-06 19.4861C7.76177e-06 15.6984 2.14003 12.2358 5.52787 10.5418L22.1394 2.23608C24.9546 0.828439 28.2684 0.828439 31.0837 2.23608L47.6952 10.5418C51.083 12.2358 53.223 15.6984 53.223 19.4861L53.223 41.598Z" fill="#FB8C00"/>
<path d="M26.6112 37.1738C26.197 37.1738 25.8612 36.838 25.8612 36.4238L25.8612 31.1738L20.6112 31.1738C20.197 31.1738 19.8612 30.838 19.8612 30.4238C19.8612 30.0096 20.197 29.6738 20.6112 29.6738L25.8612 29.6738L25.8612 24.4238C25.8612 24.0096 26.197 23.6738 26.6112 23.6738C27.0254 23.6738 27.3612 24.0096 27.3612 24.4238L27.3612 29.6738L32.6112 29.6738C33.0254 29.6738 33.3612 30.0096 33.3612 30.4238C33.3612 30.838 33.0254 31.1738 32.6112 31.1738L27.3612 31.1738L27.3612 36.4238C27.3612 36.838 27.0254 37.1738 26.6112 37.1738Z" fill="white"/>
</svg>
