<svg width="24" height="25" viewBox="0 0 24 25" fill="none" xmlns="http://www.w3.org/2000/svg">
<g clip-path="url(#clip0_4138_3234)">
<path d="M23.766 12.7879C23.766 11.9382 23.6999 11.0839 23.5588 10.248H12.24V15.0615H18.7217C18.4528 16.614 17.5885 17.9873 16.323 18.86V21.9832H20.19C22.4608 19.8061 23.766 16.591 23.766 12.7879Z" fill="#4285F4"/>
<path d="M12.2401 25.0009C15.4766 25.0009 18.2059 23.8939 20.1945 21.9832L16.3276 18.86C15.2517 19.6224 13.8627 20.0541 12.2445 20.0541C9.11388 20.0541 6.45946 17.8541 5.50705 14.8961H1.5166V18.1159C3.55371 22.3369 7.7029 25.0009 12.2401 25.0009Z" fill="#34A853"/>
<path d="M5.50253 14.8961C4.99987 13.3437 4.99987 11.6626 5.50253 10.1102V6.89044H1.51649C-0.18551 10.4225 -0.18551 14.5838 1.51649 18.1159L5.50253 14.8961Z" fill="#FBBC04"/>
<path d="M12.2401 4.94756C13.9509 4.92 15.6044 5.59059 16.8434 6.82153L20.2695 3.25273C18.1001 1.13073 15.2208 -0.0359021 12.2401 0.00084236C7.7029 0.00084236 3.55371 2.66481 1.5166 6.89043L5.50264 10.1102C6.45064 7.14764 9.10947 4.94756 12.2401 4.94756Z" fill="#EA4335"/>
</g>
<defs>
<clipPath id="clip0_4138_3234">
<rect width="24" height="25" fill="white"/>
</clipPath>
</defs>
</svg>
