<svg width="268" height="120" viewBox="0 0 268 120" fill="none" xmlns="http://www.w3.org/2000/svg">
<path fill-rule="evenodd" clip-rule="evenodd" d="M21.8293 41.0596C21.5758 49.7705 22.2772 51.1525 17.7902 57.7791C15.0428 61.8369 14.3228 64.2211 14.6586 70.0184C14.7677 71.9039 14.7577 73.6518 14.8003 75.5874C14.8723 78.8688 15.1589 82.6386 15.3811 85.9106C15.6984 90.5852 16.016 97.0288 16.0842 101.898C16.0992 102.972 15.9583 103.617 15.9636 104.524C15.9816 107.552 16.1385 109.207 16.0546 112.889C16.0332 113.825 15.9736 114.606 15.943 115.514C15.9115 116.449 15.9705 117.493 15.9095 118.37L23.1299 118.455L22.9931 83.8166L30.5731 83.7846C31.0554 83.7871 31.3167 83.6553 31.4745 84.1744L32.6409 87.0835C33.474 89.4104 34.245 91.1226 34.9955 93.3912C35.3643 94.507 35.8131 95.3422 36.1846 96.5226C36.6896 98.1271 40.7432 108.04 40.8483 108.997C41.1019 109.252 41.1981 109.542 41.3481 109.944C41.6737 110.817 42.2583 112.724 42.6788 113.194C42.6208 113.837 43.1506 114.409 43.1926 115.021C43.6131 115.457 43.7106 115.992 44.1852 116.823C44.6954 117.717 44.8531 117.585 45.9014 117.55L59.2353 117.371C59.1582 116.554 59.0425 116.689 58.9046 115.986C58.6974 115.691 58.502 115.229 58.4994 114.785C58.205 114.51 57.5967 112.996 57.3901 112.521C57.1123 111.882 56.5644 110.805 56.5068 110.118C56.1174 109.701 54.0704 103.925 53.8442 103.368L46.5664 85.3503C46.3324 84.7474 46.1009 84.1542 45.9307 83.621C45.7598 82.6453 45.1505 82.0511 45.1488 81.1543C45.4893 80.8352 45.6739 80.7073 46.0483 80.6314C46.2926 80.1506 46.6473 79.9671 47.0352 79.6355C49.733 77.3294 51.064 75.0338 52.8823 71.682C54.794 68.1583 55.2489 65.1122 56.2393 62.4298C56.7291 61.1032 56.5532 59.8883 57.161 59.1012C57.0632 58.4528 57.4869 56.3725 57.575 55.3379C57.6638 54.2946 57.8054 52.323 57.7898 51.2767C57.7793 48.4889 57.8559 45.3059 57.3948 42.8341L57.0463 41.1905C56.7718 39.4873 55.9811 36.9031 55.8513 36.1075C55.8054 36.0771 55.8232 36.1162 55.7091 35.8847C55.6953 35.8565 55.5659 35.5568 55.5505 35.5168C55.358 35.0147 55.3513 35.0391 55.3688 34.5189C55.0177 34.388 54.7918 33.5989 54.4407 32.7265C53.6372 30.7299 52.6613 29.0495 51.5945 27.4071C49.5567 24.27 48.2486 23.9737 46.2346 22.4109C45.0813 22.0648 44.5055 21.645 44.0993 21.5314C42.7057 21.1419 43.5187 21.2613 42.8724 20.9752L40.7904 20.4051C40.6595 19.9565 40.9451 20.7253 40.7904 20.2218C37.1713 19.9243 33.2271 19.8007 29.5677 19.8169C27.1474 19.8276 23.4979 19.9267 21.0485 19.6124C20.3117 19.5179 19.233 19.3832 18.4555 19.3942C18.4547 20.101 18.9461 21.2284 19.1532 21.8401C19.9415 24.1693 20.683 26.1243 21.2094 28.7441C21.9443 32.401 21.8916 36.7868 21.8293 41.0596Z" fill="#FB8C00"/>
<mask id="mask0_4363_18813" style="mask-type:luminance" maskUnits="userSpaceOnUse" x="14" y="19" width="46" height="100">
<path d="M21.8293 41.0596C21.5758 49.7705 22.2772 51.1525 17.7902 57.7791C15.0428 61.8369 14.3228 64.2211 14.6586 70.0184C14.7677 71.9039 14.7577 73.6518 14.8003 75.5874C14.8723 78.8688 15.1589 82.6386 15.3811 85.9106C15.6984 90.5852 16.016 97.0288 16.0842 101.898C16.0992 102.972 15.9583 103.617 15.9636 104.524C15.9816 107.552 16.1385 109.207 16.0546 112.889C16.0332 113.825 15.9736 114.606 15.943 115.514C15.9115 116.449 15.9705 117.493 15.9095 118.37L23.1299 118.455L22.9931 83.8166L30.5731 83.7846C31.0554 83.7871 31.3167 83.6553 31.4745 84.1744L32.6409 87.0835C33.474 89.4104 34.245 91.1226 34.9955 93.3912C35.3643 94.507 35.8131 95.3422 36.1846 96.5226C36.6896 98.1271 40.7432 108.04 40.8483 108.997C41.1019 109.252 41.1981 109.542 41.3481 109.944C41.6737 110.817 42.2583 112.724 42.6788 113.194C42.6208 113.837 43.1506 114.409 43.1926 115.021C43.6131 115.457 43.7106 115.992 44.1852 116.823C44.6954 117.717 44.8531 117.585 45.9014 117.55L59.2353 117.371C59.1582 116.554 59.0425 116.689 58.9046 115.986C58.6974 115.691 58.502 115.229 58.4994 114.785C58.205 114.51 57.5967 112.996 57.3901 112.521C57.1123 111.882 56.5644 110.805 56.5068 110.118C56.1174 109.701 54.0704 103.925 53.8442 103.368L46.5664 85.3503C46.3324 84.7474 46.1009 84.1542 45.9307 83.621C45.7598 82.6453 45.1505 82.0511 45.1488 81.1543C45.4893 80.8352 45.6739 80.7073 46.0483 80.6314C46.2926 80.1506 46.6473 79.9671 47.0352 79.6355C49.733 77.3294 51.064 75.0338 52.8823 71.682C54.794 68.1583 55.2489 65.1122 56.2393 62.4298C56.7291 61.1032 56.5532 59.8883 57.161 59.1012C57.0632 58.4528 57.4869 56.3725 57.575 55.3379C57.6638 54.2946 57.8054 52.323 57.7898 51.2767C57.7793 48.4889 57.8559 45.3059 57.3948 42.8341L57.0463 41.1905C56.7718 39.4873 55.9811 36.9031 55.8513 36.1075C55.8054 36.0771 55.8232 36.1162 55.7091 35.8847C55.6953 35.8565 55.5659 35.5568 55.5505 35.5168C55.358 35.0147 55.3513 35.0391 55.3688 34.5189C55.0177 34.388 54.7918 33.5989 54.4407 32.7265C53.6372 30.7299 52.6613 29.0495 51.5945 27.4071C49.5567 24.27 48.2486 23.9737 46.2346 22.4109C45.0813 22.0648 44.5055 21.645 44.0993 21.5314C42.7057 21.1419 43.5187 21.2613 42.8724 20.9752L40.7904 20.4051C40.6595 19.9565 40.9451 20.7253 40.7904 20.2218C37.1713 19.9243 33.2271 19.8007 29.5677 19.8169C27.1474 19.8276 23.4979 19.9267 21.0485 19.6124C20.3117 19.5179 19.233 19.3832 18.4555 19.3942C18.4547 20.101 18.9461 21.2284 19.1532 21.8401C19.9415 24.1693 20.683 26.1243 21.2094 28.7441C21.9443 32.401 21.8916 36.7868 21.8293 41.0596Z" fill="white"/>
</mask>
<g mask="url(#mask0_4363_18813)">
<path fill-rule="evenodd" clip-rule="evenodd" d="M23.0479 34.4988C31.7086 34.6514 43.4749 29.7313 44.4553 51.7152C45.4296 73.5547 30.1002 67.6282 23.0479 67.6282V34.4988Z" fill="#4F1401"/>
</g>
<path fill-rule="evenodd" clip-rule="evenodd" d="M89.0445 47.0643C88.7711 47.3643 87.4143 47.39 86.0232 48.0139C84.6758 48.6182 82.1102 49.9799 80.9748 50.8947C80.2589 51.4715 79.4463 52.3813 78.6645 52.7527L78.5339 52.8003L76.1789 55.5123C74.7857 57.23 73.4506 59.4781 72.2768 61.6822C71.9432 62.3087 70.9723 64.863 70.6142 65.2332C70.0881 66.6799 69.4403 68.5529 69.1149 70.2614C68.9029 71.3743 68.6436 72.1294 68.5425 73.1486C68.4603 73.9786 68.3101 75.2714 68.1804 76.0852C68.1284 78.4709 67.7842 80.4645 67.7832 83.0505C67.7824 85.4096 68.002 87.5345 68.1957 89.809C68.8166 92.8327 68.6238 93.1101 69.6577 97.0498C70.7624 101.259 72.7583 105.708 75.0144 108.809C76.0489 110.231 77.0411 111.551 78.2413 112.688L78.6378 113.132C78.6451 113.143 78.6671 113.175 78.6777 113.2L79.9203 114.229C80.1024 114.455 79.9691 114.253 80.1171 114.52C80.4305 114.537 81.4627 115.385 81.8744 115.671C82.5268 116.124 83.0675 116.397 83.7533 116.757C85.2575 117.547 86.2803 117.926 87.9482 118.403C89.3331 118.756 91.3241 119.054 92.8368 119.028C93.6908 119.012 94.5442 119.005 95.3969 118.936C96.3013 118.862 96.9715 118.594 97.8365 118.473C98.0784 118.301 98.4233 118.21 98.6967 118.245L105.143 114.078C105.275 113.813 105.159 113.992 105.323 113.78C105.466 113.596 105.455 113.624 105.587 113.508C105.83 113.293 105.879 113.251 106.136 113.104C106.258 112.857 107.801 111.242 108.139 110.873C111.679 107.001 112.995 102.703 113.165 102.492C113.324 101.911 113.214 102.407 113.355 102.028C113.422 101.85 113.808 101.421 113.05 100.714C112.627 100.32 112.281 100.047 111.81 99.6436C109.842 97.9602 107.296 96.1463 105.227 94.5904C104.45 94.0064 104.204 93.6261 103.948 93.4332C103.497 93.7127 102.183 96.681 101.72 97.4397C101.067 98.5112 100.003 100.093 99.1118 100.926C97.8804 102.077 97.3269 102.588 95.5242 103.062C91.3802 104.15 86.838 101.791 84.1112 97.8387C83.0293 96.2704 81.5877 93.5426 81.0685 91.4081L80.6938 89.0776C80.6862 88.8311 80.6805 88.8841 80.719 88.6465C80.7681 88.3446 80.7512 88.4404 80.8363 88.2543C81.4393 87.7629 88.509 88.1827 89.8367 88.1958C92.8805 88.226 95.9087 88.2052 98.9481 88.1679C101.994 88.1307 105.013 88.1003 108.06 88.1488L114.917 88.2126C115.781 88.407 116.207 88.1847 117.11 88.1786L117.002 77.4021C116.75 75.0023 116.431 72.2856 115.786 69.9575L114.884 66.5701C114.677 65.9268 113.929 63.8252 113.899 63.3753C113.555 63.043 112.674 60.6911 112.411 60.1147C111.422 57.9428 110.246 56.1538 108.8 54.6118C108.386 54.1701 106.943 52.7737 106.716 52.2457C106.463 52.2254 106.244 52.0171 106.123 51.7926L105.087 50.9377C104.94 50.8854 102.342 49.05 100.945 48.3922C100.313 48.0948 99.2917 47.7337 98.6629 47.5525C97.6582 47.2628 97.0185 47.3717 96.6163 47.2753C96.1339 47.1596 96.1555 46.9904 96.1162 46.9357C95.7732 47.0278 93.2146 46.7878 92.5035 46.7783C91.8632 46.7698 91.251 46.7403 90.6099 46.8088C90.0378 46.8701 89.5607 47.1417 89.0445 47.0643Z" fill="white"/>
<mask id="mask1_4363_18813" style="mask-type:luminance" maskUnits="userSpaceOnUse" x="66" y="46" width="50" height="74">
<path d="M87.8268 47.0643C87.5533 47.3643 86.1965 47.39 84.8055 48.0139C83.458 48.6182 80.8924 49.9799 79.757 50.8947C79.0411 51.4715 78.2285 52.3813 77.4467 52.7527L77.3161 52.8003L74.9612 55.5123C73.5679 57.23 72.2328 59.4781 71.059 61.6822C70.7255 62.3087 69.7545 64.863 69.3965 65.2332C68.8703 66.6799 68.2225 68.5529 67.8972 70.2614C67.6851 71.3743 67.4258 72.1294 67.3247 73.1486C67.2425 73.9786 67.0924 75.2714 66.9626 76.0852C66.9107 78.4709 66.5665 80.4645 66.5654 83.0505C66.5647 85.4096 66.7842 87.5345 66.9779 89.809C67.5988 92.8327 67.4061 93.1101 68.4399 97.0498C69.5447 101.259 71.5405 105.708 73.7966 108.809C74.8311 110.231 75.8233 111.551 77.0235 112.688L77.42 113.132C77.4274 113.143 77.4493 113.175 77.46 113.2L78.7025 114.229C78.8846 114.455 78.7513 114.253 78.8993 114.52C79.2127 114.537 80.2449 115.385 80.6566 115.671C81.309 116.124 81.8497 116.397 82.5355 116.757C84.0397 117.547 85.0626 117.926 86.7305 118.403C88.1153 118.756 90.1063 119.054 91.619 119.028C92.473 119.012 93.3265 119.005 94.1792 118.936C95.0835 118.862 95.7537 118.594 96.6187 118.473C96.8607 118.301 97.2055 118.21 97.479 118.245L103.925 114.078C104.057 113.813 103.941 113.992 104.105 113.78C104.248 113.596 104.237 113.624 104.369 113.508C104.612 113.293 104.661 113.251 104.918 113.104C105.041 112.857 106.583 111.242 106.921 110.873C110.461 107.001 111.777 102.703 111.947 102.492C112.107 101.911 111.996 102.407 112.137 102.028C112.204 101.85 112.591 101.421 111.832 100.714C111.409 100.32 111.064 100.047 110.592 99.6436C108.624 97.9602 106.078 96.1463 104.009 94.5904C103.233 94.0064 102.987 93.6261 102.731 93.4332C102.28 93.7127 100.965 96.681 100.503 97.4397C99.8495 98.5112 98.7857 100.093 97.894 100.926C96.6626 102.077 96.1091 102.588 94.3065 103.062C90.1624 104.15 85.6203 101.791 82.8935 97.8387C81.8116 96.2704 80.3699 93.5426 79.8507 91.4081L79.4761 89.0776C79.4684 88.8311 79.4627 88.8841 79.5012 88.6465C79.5503 88.3446 79.5334 88.4404 79.6186 88.2543C80.2215 87.7629 87.2913 88.1827 88.619 88.1958C91.6627 88.226 94.6909 88.2052 97.7304 88.1679C100.776 88.1307 103.795 88.1003 106.842 88.1488L113.699 88.2126C114.563 88.407 114.989 88.1847 115.892 88.1786L115.784 77.4021C115.532 75.0023 115.213 72.2856 114.569 69.9575L113.666 66.5701C113.46 65.9268 112.711 63.8252 112.681 63.3753C112.338 63.043 111.456 60.6911 111.193 60.1147C110.204 57.9428 109.028 56.1538 107.582 54.6118C107.168 54.1701 105.725 52.7737 105.498 52.2457C105.245 52.2254 105.026 52.0171 104.905 51.7926L103.869 50.9377C103.722 50.8854 101.124 49.05 99.7269 48.3922C99.0951 48.0948 98.0739 47.7337 97.4451 47.5525C96.4404 47.2628 95.8007 47.3717 95.3985 47.2753C94.9161 47.1596 94.9378 46.9904 94.8984 46.9357C94.5554 47.0278 91.9968 46.7878 91.2857 46.7783C90.6455 46.7698 90.0333 46.7403 89.3921 46.8088C88.82 46.8701 88.3429 47.1417 87.8268 47.0643Z" fill="white"/>
</mask>
<g mask="url(#mask1_4363_18813)">
<path fill-rule="evenodd" clip-rule="evenodd" d="M106.107 74.6196H79.709C79.709 74.6196 88.9866 39.9721 106.107 74.6196Z" fill="#541400"/>
</g>
<path fill-rule="evenodd" clip-rule="evenodd" d="M134.627 49.1246C133.216 49.9847 131.865 50.9967 130.634 52.2769C130.586 52.3273 130.407 52.5125 130.378 52.5396C130.153 52.7522 130.319 52.6703 130.063 52.7859L129.558 53.5728C128.56 54.8104 127.874 55.7346 127.188 57.3836C127.045 57.7262 126.97 57.9403 126.838 58.2873L126.556 58.9948C126.397 59.2856 126.564 59.0659 126.36 59.285C126.381 59.6237 125.671 62.1867 125.524 63.0801C125.037 66.0505 124.852 69.1831 125.191 72.1761C125.328 73.3865 125.848 75.6089 125.886 76.439C126.197 76.8232 126.534 78.716 127.248 80.2485C128.242 83.3088 132.145 86.7338 135.106 88.0973C140.949 90.7883 148.981 89.776 149.725 96.0885C150.052 98.8568 148.488 101.375 147.465 102.349C145.463 104.256 144.62 103.973 141.944 103.784C140.871 103.708 137.114 102.508 136.473 101.93C135.185 101.532 133.219 99.7883 132.074 98.6651C131.475 98.0778 128.61 94.9762 128.057 94.772L126.548 99.066C126.516 99.1653 126.475 99.2817 126.422 99.3777C126.273 99.6513 126.416 99.4387 126.227 99.6374C126.221 100.165 125.671 101.923 125.5 102.248C125.175 103.74 123.378 107.676 123.363 108.904C123.515 109.769 125.809 111.426 126.057 111.917C126.561 111.963 127.276 112.724 127.736 113.07C128.106 113.349 129.314 114.102 129.456 114.266C130.006 114.482 130.489 114.884 131.007 115.172C132.232 115.851 132.98 116.292 134.32 116.742C134.645 116.851 134.893 116.942 135.228 117.033C135.583 117.131 135.82 117.145 136.097 117.466C136.381 117.417 139.251 118.254 139.906 118.401C140.579 118.552 141.211 118.64 141.844 118.782C142.531 118.937 143.294 118.879 143.947 119.02C149.781 119.128 156.232 114.945 159.508 109.069C159.806 108.534 159.992 108.128 160.279 107.501C161.129 105.638 162.004 102.488 162.181 102.199C161.995 100.732 163.619 97.5097 162.001 89.4845C161.706 88.0192 161.187 87.0842 160.956 85.8389C160.717 85.5402 160.13 84.1107 159.79 83.5817C155.222 76.482 146.387 75.4597 145.835 74.916C144.172 74.6037 141.241 73.6219 139.957 72.8198C137.045 70.9997 135.815 64.0883 141.099 61.1326C142.606 60.29 146.8 61.2839 147.237 61.9312C148.128 61.9088 152.404 64.0491 152.725 64.6235C154.225 65.3506 155.788 67.8567 156.887 68.2662C156.937 67.1117 157.421 66.2818 157.78 65.16L158.044 64.4257C158.164 64.1954 158.101 64.3024 158.221 64.1478C158.238 63.5996 158.528 62.9085 158.711 62.4408C158.845 62.0965 158.887 61.9791 159.012 61.6181C159.144 61.2353 159.216 60.9657 159.328 60.9143C159.391 60.2189 160.969 55.4664 161.224 54.9399C161.392 54.5934 161.415 54.7594 161.554 54.2586C161.124 53.5964 158.103 51.4871 157.304 50.9927C156.008 50.1912 154.408 49.2951 153.028 48.8429C152.759 48.755 152.582 48.728 152.384 48.463L151.927 48.3901L151.947 48.3264C151.183 48.1679 150.256 47.8699 149.507 47.6063C148.739 47.3361 147.796 47.3638 147.057 47.1295C144.766 46.8892 142.528 46.5227 140.216 47.0391C139.086 47.2915 138.275 47.5218 137.269 47.8607C136.318 48.1807 135.481 48.8933 134.627 49.1246Z" fill="white"/>
<path fill-rule="evenodd" clip-rule="evenodd" d="M174.296 49.1496C174.221 51.012 174.166 62.6272 174.484 63.5423C174.637 63.7776 177.479 63.6557 177.716 63.6454C178.643 63.6047 180.187 63.1144 180.976 63.6405C181.154 64.2732 180.969 75.4936 181.048 77.5322C181.307 84.2111 180.703 100.033 181.924 104.901C182.402 106.805 182.809 108.258 183.504 109.812L185.688 114.105L185.866 114.201C186.382 115.054 187.206 115.688 187.575 116.172L187.66 116.3L188.04 116.561C189.386 117.114 190.154 118.164 192.498 118.826L193.189 119.166C193.776 119.039 194.672 119.412 195.375 119.433C196.283 119.461 196.887 119.344 197.782 119.239C198.013 119.112 199.662 118.795 200.145 118.639C200.843 118.413 201.822 117.828 202.501 117.807C202.858 117.224 206.465 115.679 207.95 114.346L207.812 112.928C207.384 110.958 204.987 103.198 205.41 101.416C205.141 101.161 205.348 101.508 205.204 101.108C205.042 100.656 205.128 100.284 205.124 99.6429C204.59 99.5336 203.969 100.325 203.56 100.786C203.019 101.396 202.538 101.628 201.852 101.964C200.248 102.75 199.173 102.832 197.754 101.727C196.801 100.985 195.906 99.4631 195.43 97.8065C194.771 95.5087 194.848 94.2497 194.837 91.5646C194.818 87.0092 195.022 82.2536 194.908 77.6324C194.855 75.4865 194.767 64.9409 194.937 63.4004C196.631 63.2398 198.443 63.2802 200.157 63.2735C201.904 63.2666 203.818 63.0769 205.467 63.1028L205.482 61.5458L205.465 52.8633L205.448 48.8945C204.131 48.6113 201.517 48.8758 200.046 48.8671C199.325 48.8628 195.266 48.7816 194.892 48.5712L194.797 31.5022C194.312 30.882 182.631 31.1664 181.151 31.3338L181.155 48.8803L175.719 48.9952C175.233 48.9465 174.585 48.6543 174.296 49.1496Z" fill="white"/>
<path fill-rule="evenodd" clip-rule="evenodd" d="M186.995 0.298898C185.655 0.356939 184.17 1.44833 183.069 2.29761L182.04 3.23169C181.597 4.21007 180.56 4.74384 180.48 5.78225L182.38 7.15914C182.816 7.50576 183.829 8.43912 183.982 8.97216C183.822 8.92786 180.889 6.76262 179.578 6.08891C178.721 5.93124 178.039 5.52441 177.132 5.63181C174.204 5.97789 172.318 8.75753 171.801 9.09529C171.83 9.35964 171.03 11.3007 170.845 12.031C170.389 13.8333 170.354 14.129 170.584 16.1532C170.751 16.4964 171.044 17.6306 171.261 18.1437C171.511 18.7352 171.842 19.3612 172.16 19.8347C172.74 20.6985 173.915 21.5548 174.839 22.137C176.34 23.0832 176.421 22.5724 177.019 25.1121C177.221 25.9731 177.134 26.9931 177.183 27.9024C177.249 29.0983 177.343 29.2611 177.579 30.1883C177.856 30.1951 178.965 29.5037 179.364 29.3243C180.856 28.6539 183.864 28.1089 185.361 28.0089C187.347 27.8764 192.639 28.1959 193.787 29.2875C192.551 29.3399 190.903 29.0546 189.581 28.9383C188.197 28.8164 186.781 28.6539 185.4 29.0452C183.79 29.501 181.291 29.9321 179.715 30.458C179.243 30.6157 178.39 31.1081 178.153 31.1104C178.041 31.2903 178.121 31.203 177.958 31.3695C177.833 31.4972 177.781 31.5198 177.664 31.6068C177.303 31.8749 177.416 31.6534 177.194 32.1192C177.184 32.6627 177.136 33.4033 177.181 33.923C177.198 34.1222 177.267 34.4824 177.322 34.6142C177.619 35.3134 177.458 35.0428 177.856 34.9793C178.717 33.0762 184.96 32.2658 187.246 32.3041C189.428 32.3407 196.005 33.0187 197.28 34.2597C198.266 34.6027 198.2 34.712 198.662 34.9865L198.791 26.981C198.794 26.8248 198.8 26.5228 198.822 26.3789L198.958 25.912C198.812 24.2241 199.918 23.5049 200.762 22.9136C201.673 22.275 202.624 21.5727 203.272 20.8328C203.583 20.4784 204.06 19.8864 204.307 19.4932C204.606 19.0169 204.47 19.0825 204.656 18.5697C204.983 17.6673 205.355 16.6905 205.449 15.5171C205.532 14.4933 205.352 13.591 205.404 12.9114C205.089 12.5147 205.176 11.9648 204.279 10.2275L203.943 9.57373C203.801 9.27755 203.954 9.66721 203.771 9.18859C203.769 9.18841 202.423 8.10335 202.159 7.91097C201.696 7.57447 200.614 7.15137 200.357 6.90383C199.914 6.87816 199.331 6.79517 198.901 6.83024C197.873 6.91378 198.032 8.41724 196.914 6.07932C196.641 5.50705 196.312 4.96533 196.2 4.5321C195.516 4.04499 192.5 -1.30492 186.995 0.298898Z" fill="#FB8C00"/>
<path fill-rule="evenodd" clip-rule="evenodd" d="M252.947 56.3879L253.015 56.4256C252.993 58.4748 252.915 60.4518 252.867 62.4619C252.82 64.4688 252.917 66.6177 252.899 68.6543C252.887 69.944 252.941 79.3009 252.441 80.3739C252.583 81.0919 252.171 84.4452 252.16 85.6777C252.117 90.39 251.886 92.8686 251.744 97.2987C251.682 99.2132 251.27 100.701 251.251 102.402L251.331 113.547C251.336 114.168 251.341 114.79 251.347 115.411C251.352 115.977 251.319 116.535 251.555 116.986C251.98 116.888 254.239 115.063 254.7 114.687C255.646 113.917 256.729 112.745 257.543 111.83C259.991 109.079 262.753 104.785 264.19 100.968C264.464 100.242 264.824 99.4493 265.051 98.766C265.321 97.9544 265.508 97.2345 265.787 96.3464C266.181 95.0917 266.888 92.6205 267.057 91.3887L267.787 86.0214C267.874 85.6787 267.805 85.8532 267.926 85.6419C267.865 85.222 267.915 79.1418 268 78.9302C267.711 78.5185 267.916 79.2828 267.744 78.2542C267.55 77.0912 267.868 75.5883 266.617 70.5821C265.235 65.0519 264.21 62.3468 261.441 57.8197C259.762 55.0757 259.606 55.2708 257.933 53.4169C257.908 53.3891 257.823 53.2858 257.805 53.2639L257.681 53.0911C257.356 52.9584 257.011 52.6618 256.792 52.246C256.612 52.223 256.67 52.2657 256.555 52.1125C255.547 51.8453 254.73 50.7255 253.153 50.4346C252.974 51.641 253.236 54.9829 253.013 56.1877L252.947 56.3879Z" fill="white"/>
<path fill-rule="evenodd" clip-rule="evenodd" d="M9.02093 26.2022L8.20872 45.2905L8.18393 46.2226L7.07141 46.9589C6.6788 47.1817 6.25726 47.5102 5.70333 47.2636C5.05751 46.9759 4.55031 45.6858 4.44687 44.6526C4.2065 42.253 4.65673 39.0035 4.73603 36.582C4.77769 35.3112 4.93538 33.8548 5.06374 32.6088C5.30553 30.2604 5.07854 23.4209 5.23129 22.1558C5.28256 21.7314 5.37964 21.6649 5.4139 21.3143C5.46011 20.8397 5.39924 20.742 5.29372 20.5424C4.79508 20.8369 5.25842 20.4279 4.93292 21.0584C4.35861 22.1708 4.1089 22.585 3.66893 23.9236C3.37717 24.811 3.48048 24.7206 3.10734 25.0964C3.11578 25.4175 2.36834 27.7198 2.19572 28.4192C1.93537 29.4737 1.71473 30.6643 1.34887 31.6096L0.632576 36.1146C-0.205454 40.7785 -0.365999 45.6635 1.11577 50.0132C2.94083 55.3712 6.33383 57.1298 6.89204 58.7344C7.24026 58.9483 7.55084 59.7889 7.7816 60.2941C8.94331 62.8376 8.51761 64.1479 8.44467 67.8344C8.37355 71.4347 8.14694 75.0168 7.94045 78.5354C7.52293 85.6476 7.61677 93.0712 6.94253 99.9313C6.85518 100.819 6.91371 101.703 6.82235 102.574C6.41313 106.481 6.52436 106.553 6.55719 110.585C6.59081 114.684 6.22416 117.358 9.11632 118.597C10.3859 119.14 11.6917 118.623 12.5819 117.885C13.4643 117.154 13.8512 115.648 14.1341 114.188C14.5392 112.098 13.5814 96.2116 13.4069 92.8615C13.3224 91.241 13.1705 89.3523 13.0126 87.7882C12.8443 86.1197 12.8146 84.1926 12.6542 82.4709C12.3303 78.9933 12.1118 75.6479 11.9636 72.0281C11.5798 62.6531 11.9655 62.149 16.2256 55.2376C20.1009 48.9507 21.1273 47.2023 20.1409 38.7035C19.9515 37.0722 19.7623 35.4709 19.4965 33.9427C19.3178 32.9151 18.5949 30.0132 18.6909 29.3531C18.4107 29.003 18.1378 27.7493 17.9166 26.9721C17.6813 26.1451 16.5298 20.6268 15.8964 20.2949C15.673 20.9997 15.2883 33.0605 15.2668 34.8737C15.2489 36.3806 15.4389 45.1869 15.0988 46.1705C13.9675 49.4433 12.3871 47.3254 12.284 45.4552C11.9276 38.9819 12.1097 33.691 11.1893 26.6696C11.0538 25.6361 10.7965 24.3673 10.7144 23.353C10.6599 22.68 10.6142 20.5549 10.4237 20.0535C10.2856 19.69 10.4452 20.0019 10.2234 19.7266C9.85454 20.2482 9.84143 20.2647 9.75876 21.1984L9.34487 24.7373C9.3097 25.0166 9.29633 25.2887 9.25246 25.5357C9.12579 26.2505 9.04013 26.1718 9.02093 26.2022Z" fill="#FB8C00"/>
<path fill-rule="evenodd" clip-rule="evenodd" d="M225.821 53.1149L224.834 54.6469C224.47 55.1288 224.154 55.4942 223.789 55.9791C223.152 56.826 222.453 58.2295 221.824 58.8911L219.677 63.7188C217.28 69.9345 216.114 75.1398 216.125 82.8963C216.129 85.4561 216.335 87.6741 216.831 89.9372C217.387 92.4731 217.286 93.0546 218.152 96.1483C218.864 98.6938 219.991 101.914 221.079 104.142C221.28 104.553 221.459 104.888 221.662 105.344C221.833 105.726 222.161 106.071 222.184 106.496C222.804 106.945 225.355 112.481 226.793 112.657C226.838 110.619 226.779 108.488 226.802 106.426C226.824 104.342 226.985 102.531 227.051 100.544C227.184 96.4844 227.083 92.38 227.148 88.3144C227.282 80.0387 227.212 71.5231 227.142 63.2372C227.13 61.3297 227.054 59.4178 227.064 57.5088C227.072 56.1549 227.217 52.5659 226.837 51.7314C226.439 51.9133 226.506 51.8991 226.324 52.3769C226.264 52.5332 226.211 52.7265 226.12 52.8671C225.755 53.4307 226.091 53.0469 225.821 53.1149Z" fill="white"/>
<path fill-rule="evenodd" clip-rule="evenodd" d="M244.02 52.7102C244 52.7519 243.968 52.7592 243.955 52.8295L242.686 54.4322C241.366 56.2095 240.65 58.3919 240.041 60.9818C237.618 71.2841 242.544 75.6901 244.504 80.3278C245.19 81.9517 244.437 88.6886 244.27 91.182L244.184 92.3143C244.085 92.8376 244.176 92.4734 244.074 92.6899C244.265 93.736 244.014 94.9625 244.026 96.0548C243.938 102.062 243.593 108.023 243.607 114.073C243.594 115.633 243.376 117.578 243.505 119.036C244.384 119.745 246.22 118.889 247.187 119.17C247.213 119.143 247.254 119.063 247.269 119.097L248.016 118.655L247.447 96.6558C247.191 94.5926 247.096 95.9505 247.06 92.4935C247.053 91.81 247.109 91.069 247.008 90.4141C246.888 89.6345 246.759 89.4989 246.731 88.4753C246.686 86.8432 246.712 85.6036 246.552 84.0741C246.291 81.5856 246.525 80.1875 247.438 78.5482C247.791 77.9154 248.446 76.4058 248.845 76.0098C250.305 74.5604 249.26 75.4205 249.982 74.2037C250.572 73.2083 250.974 71.4133 251.154 70.146C251.406 68.3686 251.922 67.406 251.717 64.0278C251.419 59.1524 250.705 59.457 250.096 57.1088C249.906 56.9197 249.997 57.0054 249.845 56.6382C249.753 56.4172 249.709 56.2794 249.601 56.0563C249.406 55.6583 249.151 55.3556 249.11 55.0459C248.583 54.6351 248.287 54.1075 247.881 53.649C247.284 52.9749 246.867 52.998 246.564 52.4764C246.212 52.4333 245.643 52.2372 245.106 52.278C244.463 52.3268 244.37 52.7051 244.02 52.7102Z" fill="#FB8C00"/>
<path fill-rule="evenodd" clip-rule="evenodd" d="M234.624 53.0353C234.621 53.6007 233.432 56.5912 233.025 58.4299C232.255 61.9109 231.319 67.6588 231.105 71.289C230.99 73.2452 230.734 73.8642 230.702 76.3936L230.683 77.7916C230.669 77.9016 230.94 77.4797 230.54 78.3559C230.699 78.8756 230.691 85.3191 230.537 85.8923L230.621 86.1674C230.668 86.4045 230.664 86.322 230.693 86.6092C231.081 90.3862 230.146 91.4203 232.943 95.8222C234.315 97.9813 233.757 97.1351 233.855 101.008C233.892 102.503 233.886 104.93 233.694 106.454L233.517 107.204L233.254 113.021C233.229 114.243 232.976 117.11 233.277 118.093C234.878 118.633 235.929 118.817 237.675 118.668C237.755 115.96 237.557 112.846 237.43 110.108C237.3 107.316 237.285 104.27 237.269 101.474C237.234 95.613 236.938 89.8994 236.902 84.1351C236.866 78.2474 236.754 72.3542 236.749 66.4866C236.746 63.5336 236.638 60.757 236.634 57.8177C236.632 56.5932 236.797 49.5091 236.67 49.1558C236.608 49.1048 236.799 48.82 236.328 49.1327C236.143 49.2554 236.095 49.4428 236.011 49.6236C235.863 49.9431 235.717 50.3069 235.559 50.6971L234.804 52.7679C234.676 52.9992 234.767 52.8721 234.624 53.0353Z" fill="#FB8C00"/>
</svg>
