<svg width="268" height="120" viewBox="0 0 268 120" fill="none" xmlns="http://www.w3.org/2000/svg">
<path fill-rule="evenodd" clip-rule="evenodd" d="M21.8298 41.0595C21.5763 49.7704 22.2777 51.1524 17.7907 57.779C15.0432 61.8368 14.3233 64.221 14.6591 70.0183C14.7682 71.9038 14.7582 73.6517 14.8008 75.5873C14.8728 78.8687 15.1594 82.6385 15.3816 85.9105C15.6989 90.5851 16.0165 97.0287 16.0846 101.898C16.0997 102.972 15.9588 103.617 15.9641 104.524C15.9821 107.552 16.139 109.207 16.0551 112.889C16.0336 113.825 15.9741 114.606 15.9434 115.514C15.912 116.449 15.971 117.493 15.91 118.369L23.1304 118.455L22.9936 83.8165L30.5736 83.7845C31.0559 83.787 31.3172 83.6552 31.475 84.1743L32.6414 87.0835C33.4745 89.4104 34.2455 91.1225 34.9959 93.3911C35.3648 94.5069 35.8136 95.3421 36.185 96.5225C36.69 98.127 40.7437 108.04 40.8488 108.996C41.1024 109.252 41.1986 109.542 41.3486 109.944C41.6742 110.817 42.2588 112.724 42.6793 113.194C42.6213 113.837 43.1511 114.409 43.1931 115.021C43.6136 115.457 43.7111 115.992 44.1857 116.823C44.6959 117.717 44.8536 117.585 45.9019 117.549L59.2357 117.371C59.1586 116.554 59.043 116.689 58.905 115.985C58.6979 115.691 58.5024 115.229 58.4999 114.785C58.2055 114.51 57.5972 112.996 57.3906 112.521C57.1128 111.881 56.5649 110.805 56.5072 110.118C56.1179 109.701 54.0709 103.925 53.8447 103.368L46.5669 85.3502C46.3329 84.7473 46.1014 84.1541 45.9312 83.6209C45.7603 82.6452 45.1509 82.0511 45.1493 81.1542C45.4898 80.8351 45.6744 80.7072 46.0488 80.6313C46.2931 80.1505 46.6478 79.967 47.0357 79.6354C49.7334 77.3293 51.0645 75.0337 52.8828 71.6819C54.7945 68.1582 55.2494 65.1121 56.2398 62.4297C56.7296 61.1031 56.5537 59.8882 57.1615 59.1011C57.0636 58.4527 57.4874 56.3725 57.5755 55.3378C57.6643 54.2945 57.8059 52.323 57.7903 51.2766C57.7798 48.4888 57.8564 45.3058 57.3952 42.834L57.0468 41.1904C56.7723 39.4872 55.9816 36.903 55.8518 36.1074C55.8059 36.077 55.8237 36.1161 55.7096 35.8847C55.6958 35.8564 55.5664 35.5567 55.551 35.5167C55.3585 35.0146 55.3518 35.039 55.3693 34.5188C55.0182 34.3879 54.7923 33.5988 54.4412 32.7264C53.6377 30.7298 52.6618 29.0494 51.595 27.407C49.5572 24.2699 48.2491 23.9736 46.2351 22.4108C45.0818 22.0647 44.506 21.6449 44.0998 21.5313C42.7062 21.1418 43.5191 21.2612 42.8729 20.9751L40.7909 20.405C40.6599 19.9564 40.9456 20.7252 40.7909 20.2217C37.1718 19.9242 33.2276 19.8006 29.5681 19.8168C27.1479 19.8275 23.4984 19.9266 21.049 19.6123C20.3122 19.5178 19.2335 19.3831 18.456 19.3941C18.4552 20.1009 18.9466 21.2283 19.1537 21.84C19.942 24.1692 20.6835 26.1242 21.2099 28.744C21.9448 32.4009 21.8921 36.7867 21.8298 41.0595Z" fill="#FB8C00"/>
<mask id="mask0_3957_5192" style="mask-type:luminance" maskUnits="userSpaceOnUse" x="14" y="19" width="46" height="100">
<path d="M21.8298 41.0595C21.5763 49.7704 22.2777 51.1524 17.7907 57.779C15.0432 61.8368 14.3233 64.221 14.6591 70.0183C14.7682 71.9038 14.7582 73.6517 14.8008 75.5873C14.8728 78.8687 15.1594 82.6385 15.3816 85.9105C15.6989 90.5851 16.0165 97.0287 16.0846 101.898C16.0997 102.972 15.9588 103.617 15.9641 104.524C15.9821 107.552 16.139 109.207 16.0551 112.889C16.0336 113.825 15.9741 114.606 15.9434 115.514C15.912 116.449 15.971 117.493 15.91 118.369L23.1304 118.455L22.9936 83.8165L30.5736 83.7845C31.0559 83.787 31.3172 83.6552 31.475 84.1744L32.6414 87.0835C33.4745 89.4103 34.2455 91.1225 34.9959 93.3911C35.3648 94.5069 35.8136 95.3421 36.185 96.5225C36.69 98.127 40.7437 108.04 40.8488 108.996C41.1024 109.252 41.1986 109.542 41.3486 109.944C41.6742 110.817 42.2588 112.724 42.6793 113.194C42.6213 113.837 43.1511 114.409 43.1931 115.021C43.6136 115.457 43.7111 115.992 44.1857 116.823C44.6959 117.717 44.8536 117.585 45.9019 117.549L59.2357 117.371C59.1587 116.554 59.043 116.689 58.905 115.985C58.6979 115.691 58.5024 115.229 58.4999 114.785C58.2055 114.51 57.5972 112.996 57.3906 112.521C57.1128 111.881 56.5649 110.805 56.5072 110.118C56.1179 109.701 54.0709 103.925 53.8447 103.368L46.5669 85.3502C46.3329 84.7473 46.1014 84.1541 45.9312 83.6209C45.7603 82.6452 45.1509 82.0511 45.1493 81.1542C45.4898 80.8351 45.6744 80.7072 46.0488 80.6313C46.2931 80.1505 46.6478 79.967 47.0357 79.6354C49.7334 77.3293 51.0645 75.0337 52.8828 71.6819C54.7945 68.1582 55.2494 65.1121 56.2398 62.4297C56.7296 61.1031 56.5537 59.8882 57.1615 59.1011C57.0636 58.4527 57.4874 56.3725 57.5755 55.3378C57.6643 54.2945 57.8059 52.323 57.7903 51.2766C57.7798 48.4888 57.8564 45.3058 57.3952 42.834L57.0468 41.1904C56.7723 39.4872 55.9816 36.903 55.8518 36.1074C55.8059 36.077 55.8237 36.1161 55.7096 35.8847C55.6958 35.8564 55.5664 35.5567 55.551 35.5167C55.3585 35.0146 55.3518 35.039 55.3693 34.5188C55.0182 34.3879 54.7923 33.5988 54.4412 32.7264C53.6377 30.7298 52.6618 29.0494 51.595 27.407C49.5572 24.2699 48.2491 23.9736 46.2351 22.4108C45.0818 22.0647 44.506 21.6449 44.0998 21.5313C42.7062 21.1418 43.5191 21.2612 42.8729 20.9751L40.7909 20.405C40.6599 19.9564 40.9456 20.7252 40.7909 20.2217C37.1718 19.9242 33.2276 19.8006 29.5681 19.8168C27.1479 19.8275 23.4984 19.9266 21.049 19.6123C20.3122 19.5178 19.2335 19.3831 18.456 19.3941C18.4552 20.1009 18.9466 21.2283 19.1537 21.84C19.942 24.1692 20.6835 26.1242 21.2099 28.744C21.9448 32.4009 21.8921 36.7867 21.8298 41.0595Z" fill="white"/>
</mask>
<g mask="url(#mask0_3957_5192)">
<path fill-rule="evenodd" clip-rule="evenodd" d="M23.0485 34.4988C31.7092 34.6514 43.4755 29.7313 44.4559 51.7151C45.4302 73.5547 30.1008 67.6282 23.0485 67.6282V34.4988Z" fill="#FEFEFE"/>
</g>
<path fill-rule="evenodd" clip-rule="evenodd" d="M89.0442 47.0643C88.7707 47.3643 87.4139 47.39 86.0229 48.0139C84.6754 48.6182 82.1098 49.9799 80.9744 50.8947C80.2585 51.4715 79.446 52.3813 78.6641 52.7527L78.5336 52.8003L76.1786 55.5123C74.7853 57.23 73.4502 59.4781 72.2764 61.6822C71.9429 62.3087 70.9719 64.863 70.6139 65.2332C70.0877 66.6799 69.4399 68.5529 69.1146 70.2614C68.9025 71.3743 68.6432 72.1294 68.5421 73.1486C68.4599 73.9786 68.3098 75.2714 68.18 76.0852C68.1281 78.4709 67.7839 80.4645 67.7828 83.0505C67.7821 85.4096 68.0017 87.5345 68.1953 89.809C68.8162 92.8327 68.6235 93.1101 69.6573 97.0498C70.7621 101.259 72.7579 105.708 75.014 108.809C76.0485 110.231 77.0408 111.551 78.2409 112.688L78.6374 113.132C78.6448 113.143 78.6667 113.175 78.6774 113.2L79.9199 114.229C80.102 114.455 79.9687 114.253 80.1167 114.52C80.4301 114.537 81.4623 115.385 81.874 115.671C82.5264 116.124 83.0671 116.397 83.7529 116.757C85.2571 117.547 86.28 117.926 87.9479 118.403C89.3327 118.756 91.3237 119.054 92.8364 119.028C93.6904 119.012 94.5439 119.005 95.3966 118.936C96.3009 118.862 96.9711 118.594 97.8362 118.473C98.0781 118.301 98.4229 118.21 98.6964 118.245L105.142 114.078C105.274 113.813 105.159 113.992 105.323 113.78C105.466 113.596 105.455 113.624 105.586 113.508C105.83 113.293 105.878 113.251 106.135 113.104C106.258 112.857 107.801 111.242 108.138 110.873C111.678 107.001 112.994 102.703 113.165 102.492C113.324 101.911 113.213 102.407 113.355 102.028C113.421 101.85 113.808 101.421 113.05 100.714C112.626 100.32 112.281 100.047 111.81 99.6436C109.842 97.9602 107.296 96.1463 105.227 94.5904C104.45 94.0064 104.204 93.6261 103.948 93.4332C103.497 93.7127 102.182 96.681 101.72 97.4397C101.067 98.5112 100.003 100.093 99.1114 100.926C97.88 102.077 97.3265 102.588 95.5239 103.062C91.3798 104.15 86.8377 101.791 84.1109 97.8387C83.029 96.2704 81.5873 93.5426 81.0682 91.4081L80.6935 89.0776C80.6858 88.8311 80.6801 88.8841 80.7186 88.6465C80.7677 88.3446 80.7508 88.4404 80.836 88.2543C81.439 87.7629 88.5087 88.1827 89.8364 88.1958C92.8801 88.226 95.9083 88.2052 98.9478 88.1679C101.994 88.1307 105.012 88.1003 108.059 88.1488L114.917 88.2126C115.78 88.407 116.206 88.1847 117.11 88.1786L117.002 77.4021C116.75 75.0023 116.43 72.2856 115.786 69.9575L114.884 66.5701C114.677 65.9268 113.928 63.8252 113.899 63.3753C113.555 63.043 112.673 60.6911 112.411 60.1147C111.422 57.9428 110.245 56.1538 108.8 54.6118C108.386 54.1701 106.942 52.7737 106.715 52.2457C106.462 52.2254 106.244 52.0171 106.123 51.7926L105.086 50.9377C104.94 50.8854 102.341 49.05 100.944 48.3922C100.312 48.0948 99.2913 47.7337 98.6625 47.5525C97.6578 47.2628 97.0181 47.3717 96.6159 47.2753C96.1335 47.1596 96.1552 46.9904 96.1158 46.9357C95.7728 47.0278 93.2142 46.7878 92.5031 46.7783C91.8629 46.7698 91.2507 46.7403 90.6095 46.8088C90.0374 46.8701 89.5603 47.1417 89.0442 47.0643Z" fill="black"/>
<mask id="mask1_3957_5192" style="mask-type:luminance" maskUnits="userSpaceOnUse" x="66" y="46" width="50" height="74">
<path d="M87.8268 47.0643C87.5533 47.3643 86.1965 47.39 84.8055 48.0139C83.458 48.6182 80.8924 49.9799 79.757 50.8947C79.0411 51.4715 78.2285 52.3813 77.4467 52.7527L77.3161 52.8003L74.9612 55.5123C73.5679 57.23 72.2328 59.4781 71.059 61.6822C70.7255 62.3087 69.7545 64.863 69.3965 65.2332C68.8703 66.6799 68.2225 68.5529 67.8972 70.2614C67.6851 71.3743 67.4258 72.1294 67.3247 73.1486C67.2425 73.9786 67.0924 75.2714 66.9626 76.0852C66.9107 78.4709 66.5665 80.4645 66.5654 83.0505C66.5647 85.4096 66.7842 87.5345 66.9779 89.809C67.5988 92.8327 67.4061 93.1101 68.4399 97.0498C69.5447 101.259 71.5405 105.708 73.7966 108.809C74.8311 110.231 75.8233 111.551 77.0235 112.688L77.42 113.132C77.4274 113.143 77.4493 113.175 77.46 113.2L78.7025 114.229C78.8846 114.455 78.7513 114.253 78.8993 114.52C79.2127 114.537 80.2449 115.385 80.6566 115.671C81.309 116.124 81.8497 116.397 82.5355 116.757C84.0397 117.547 85.0626 117.926 86.7305 118.403C88.1153 118.756 90.1063 119.054 91.619 119.028C92.473 119.012 93.3265 119.005 94.1792 118.936C95.0835 118.862 95.7537 118.594 96.6187 118.473C96.8607 118.301 97.2055 118.21 97.479 118.245L103.925 114.078C104.057 113.813 103.941 113.992 104.105 113.78C104.248 113.596 104.237 113.624 104.369 113.508C104.612 113.293 104.661 113.251 104.918 113.104C105.041 112.857 106.583 111.242 106.921 110.873C110.461 107.001 111.777 102.703 111.947 102.492C112.107 101.911 111.996 102.407 112.137 102.028C112.204 101.85 112.591 101.421 111.832 100.714C111.409 100.32 111.064 100.047 110.592 99.6436C108.624 97.9602 106.078 96.1463 104.009 94.5904C103.233 94.0064 102.987 93.6261 102.731 93.4332C102.28 93.7127 100.965 96.681 100.503 97.4397C99.8495 98.5112 98.7857 100.093 97.894 100.926C96.6626 102.077 96.1091 102.588 94.3065 103.062C90.1624 104.15 85.6203 101.791 82.8935 97.8387C81.8116 96.2704 80.3699 93.5426 79.8507 91.4081L79.4761 89.0776C79.4684 88.8311 79.4627 88.8841 79.5012 88.6465C79.5503 88.3446 79.5334 88.4404 79.6186 88.2543C80.2215 87.7629 87.2913 88.1827 88.619 88.1958C91.6627 88.226 94.6909 88.2052 97.7304 88.1679C100.776 88.1307 103.795 88.1003 106.842 88.1488L113.699 88.2126C114.563 88.407 114.989 88.1847 115.892 88.1786L115.784 77.4021C115.532 75.0023 115.213 72.2856 114.569 69.9575L113.666 66.5701C113.46 65.9268 112.711 63.8252 112.681 63.3753C112.338 63.043 111.456 60.6911 111.193 60.1147C110.204 57.9428 109.028 56.1538 107.582 54.6118C107.168 54.1701 105.725 52.7737 105.498 52.2457C105.245 52.2254 105.026 52.0171 104.905 51.7926L103.869 50.9377C103.722 50.8854 101.124 49.05 99.7269 48.3922C99.0951 48.0948 98.0739 47.7337 97.4451 47.5525C96.4404 47.2628 95.8007 47.3717 95.3985 47.2753C94.9161 47.1596 94.9378 46.9904 94.8984 46.9357C94.5554 47.0278 91.9968 46.7878 91.2857 46.7783C90.6455 46.7698 90.0333 46.7403 89.3921 46.8088C88.82 46.8701 88.3429 47.1417 87.8268 47.0643Z" fill="white"/>
</mask>
<g mask="url(#mask1_3957_5192)">
<path fill-rule="evenodd" clip-rule="evenodd" d="M106.107 74.6198H79.709C79.709 74.6198 88.9866 39.9723 106.107 74.6198Z" fill="#FEFEFE"/>
</g>
<path fill-rule="evenodd" clip-rule="evenodd" d="M134.627 49.1246C133.216 49.9847 131.865 50.9967 130.634 52.2769C130.586 52.3273 130.407 52.5125 130.378 52.5396C130.154 52.7523 130.319 52.6703 130.063 52.7859L129.558 53.5728C128.561 54.8105 127.875 55.7346 127.188 57.3836C127.046 57.7263 126.97 57.9403 126.838 58.2873L126.556 58.9948C126.398 59.2856 126.564 59.0659 126.36 59.285C126.382 59.6237 125.671 62.1867 125.525 63.0801C125.038 66.0505 124.852 69.1831 125.191 72.1761C125.328 73.3865 125.848 75.6089 125.886 76.439C126.197 76.8232 126.534 78.716 127.248 80.2486C128.242 83.3088 132.146 86.7338 135.106 88.0973C140.949 90.7884 148.981 89.776 149.726 96.0886C150.052 98.8568 148.488 101.375 147.465 102.349C145.463 104.256 144.62 103.973 141.944 103.784C140.871 103.708 137.114 102.508 136.473 101.93C135.185 101.532 133.22 99.7884 132.074 98.6652C131.476 98.0779 128.61 94.9762 128.058 94.7721L126.548 99.066C126.517 99.1653 126.475 99.2817 126.423 99.3778C126.273 99.6513 126.416 99.4387 126.227 99.6374C126.221 100.165 125.671 101.923 125.501 102.248C125.175 103.74 123.378 107.676 123.364 108.904C123.516 109.769 125.809 111.426 126.057 111.917C126.561 111.963 127.276 112.724 127.736 113.07C128.106 113.349 129.315 114.102 129.456 114.266C130.007 114.482 130.489 114.884 131.008 115.172C132.233 115.851 132.98 116.292 134.321 116.742C134.645 116.851 134.893 116.942 135.228 117.033C135.584 117.131 135.82 117.145 136.098 117.466C136.381 117.418 139.251 118.254 139.907 118.401C140.579 118.552 141.211 118.64 141.845 118.782C142.532 118.937 143.294 118.879 143.948 119.02C149.782 119.128 156.232 114.945 159.508 109.069C159.807 108.534 159.993 108.128 160.279 107.501C161.129 105.638 162.005 102.488 162.182 102.199C161.995 100.732 163.619 97.5098 162.002 89.4845C161.707 88.0192 161.188 87.0842 160.957 85.839C160.717 85.5403 160.131 84.1107 159.79 83.5817C155.222 76.482 146.387 75.4597 145.836 74.916C144.172 74.6038 141.241 73.6219 139.957 72.8198C137.045 70.9998 135.815 64.0884 141.1 61.1326C142.606 60.29 146.801 61.2839 147.238 61.9313C148.128 61.9088 152.405 64.0491 152.726 64.6236C154.226 65.3506 155.789 67.8567 156.888 68.2662C156.937 67.1117 157.421 66.2818 157.78 65.16L158.045 64.4258C158.164 64.1954 158.101 64.3024 158.222 64.1478C158.238 63.5996 158.528 62.9086 158.711 62.4408C158.846 62.0965 158.887 61.9792 159.012 61.6181C159.144 61.2353 159.216 60.9657 159.329 60.9144C159.391 60.2189 160.969 55.4664 161.224 54.9399C161.392 54.5935 161.416 54.7595 161.555 54.2586C161.124 53.5965 158.103 51.4871 157.304 50.9928C156.008 50.1912 154.409 49.2951 153.028 48.8429C152.76 48.755 152.582 48.7281 152.385 48.463L151.927 48.3901L151.947 48.3265C151.183 48.1679 150.256 47.8699 149.507 47.6063C148.74 47.3362 147.797 47.3638 147.058 47.1295C144.766 46.8892 142.528 46.5227 140.216 47.0391C139.086 47.2915 138.276 47.5219 137.269 47.8607C136.319 48.1807 135.482 48.8933 134.627 49.1246Z" fill="black"/>
<path fill-rule="evenodd" clip-rule="evenodd" d="M174.297 49.1497C174.221 51.0121 174.166 62.6274 174.484 63.5425C174.637 63.7777 177.48 63.6558 177.717 63.6455C178.643 63.6048 180.187 63.1145 180.976 63.6406C181.154 64.2733 180.969 75.4937 181.048 77.5324C181.308 84.2113 180.704 100.033 181.924 104.901C182.402 106.805 182.809 108.258 183.504 109.812L185.688 114.105L185.866 114.201C186.383 115.054 187.206 115.689 187.576 116.172L187.66 116.301L188.041 116.562C189.386 117.114 190.154 118.164 192.498 118.826L193.189 119.166C193.776 119.039 194.672 119.412 195.375 119.433C196.283 119.461 196.888 119.344 197.782 119.239C198.013 119.112 199.662 118.795 200.145 118.639C200.844 118.413 201.822 117.828 202.501 117.808C202.858 117.224 206.465 115.679 207.951 114.346L207.812 112.928C207.384 110.958 204.987 103.198 205.41 101.416C205.142 101.161 205.348 101.508 205.204 101.108C205.042 100.657 205.129 100.284 205.124 99.643C204.59 99.5338 203.969 100.325 203.56 100.786C203.019 101.396 202.538 101.628 201.853 101.964C200.249 102.751 199.173 102.833 197.755 101.727C196.802 100.985 195.906 99.4632 195.431 97.8066C194.771 95.5089 194.849 94.2499 194.838 91.5648C194.819 87.0094 195.023 82.2538 194.908 77.6325C194.855 75.4866 194.768 64.9411 194.937 63.4005C196.631 63.24 198.443 63.2803 200.158 63.2736C201.904 63.2667 203.818 63.077 205.468 63.1029L205.482 61.5459L205.466 52.8634L205.448 48.8946C204.131 48.6114 201.517 48.876 200.047 48.8673C199.325 48.8629 195.266 48.7817 194.892 48.5713L194.797 31.5023C194.312 30.8821 182.631 31.1665 181.152 31.334L181.155 48.8805L175.719 48.9953C175.233 48.9467 174.586 48.6545 174.297 49.1497Z" fill="black"/>
<path fill-rule="evenodd" clip-rule="evenodd" d="M186.996 0.298898C185.655 0.356939 184.17 1.44833 183.07 2.29761L182.04 3.23169C181.597 4.21007 180.56 4.74384 180.48 5.78225L182.381 7.15914C182.816 7.50576 183.83 8.43912 183.982 8.97216C183.822 8.92786 180.89 6.76262 179.579 6.08891C178.721 5.93124 178.04 5.52441 177.132 5.63181C174.205 5.97789 172.318 8.75753 171.802 9.09529C171.831 9.35964 171.031 11.3007 170.846 12.031C170.39 13.8333 170.354 14.129 170.585 16.1532C170.751 16.4964 171.044 17.6306 171.261 18.1437C171.512 18.7352 171.842 19.3612 172.16 19.8347C172.74 20.6985 173.916 21.5548 174.839 22.137C176.34 23.0832 176.422 22.5724 177.019 25.1121C177.222 25.9731 177.134 26.9931 177.184 27.9024C177.249 29.0983 177.343 29.2611 177.579 30.1883C177.856 30.1951 178.965 29.5037 179.365 29.3243C180.856 28.6539 183.864 28.1089 185.361 28.0089C187.347 27.8764 192.639 28.1959 193.788 29.2875C192.552 29.3399 190.903 29.0546 189.582 28.9383C188.198 28.8164 186.782 28.6539 185.4 29.0452C183.79 29.501 181.291 29.9321 179.716 30.458C179.244 30.6157 178.391 31.1081 178.153 31.1104C178.042 31.2903 178.122 31.203 177.959 31.3695C177.834 31.4972 177.781 31.5198 177.664 31.6068C177.304 31.8749 177.416 31.6534 177.194 32.1192C177.184 32.6627 177.137 33.4033 177.182 33.923C177.199 34.1222 177.267 34.4824 177.323 34.6142C177.619 35.3134 177.459 35.0428 177.857 34.9793C178.718 33.0762 184.96 32.2658 187.246 32.3041C189.428 32.3407 196.005 33.0187 197.28 34.2597C198.266 34.6027 198.201 34.712 198.662 34.9865L198.791 26.981C198.795 26.8248 198.801 26.5228 198.822 26.3789L198.958 25.912C198.813 24.2241 199.918 23.5049 200.762 22.9136C201.674 22.275 202.624 21.5727 203.273 20.8328C203.583 20.4784 204.06 19.8864 204.307 19.4932C204.606 19.0169 204.47 19.0825 204.656 18.5697C204.984 17.6673 205.355 16.6905 205.449 15.5171C205.532 14.4933 205.352 13.591 205.404 12.9114C205.089 12.5147 205.177 11.9648 204.279 10.2275L203.943 9.57373C203.801 9.27755 203.955 9.66721 203.771 9.18859C203.77 9.18841 202.424 8.10335 202.159 7.91097C201.697 7.57447 200.614 7.15137 200.357 6.90383C199.914 6.87816 199.331 6.79517 198.901 6.83024C197.874 6.91378 198.032 8.41724 196.915 6.07932C196.641 5.50705 196.312 4.96533 196.201 4.5321C195.517 4.04499 192.5 -1.30492 186.996 0.298898Z" fill="#FB8C00"/>
<path fill-rule="evenodd" clip-rule="evenodd" d="M252.948 56.388L253.016 56.4258C252.994 58.475 252.915 60.452 252.868 62.4621C252.82 64.469 252.917 66.6179 252.899 68.6544C252.888 69.9442 252.941 79.3011 252.442 80.374C252.583 81.0921 252.172 84.4454 252.16 85.6778C252.117 90.3902 251.887 92.8688 251.744 97.2989C251.683 99.2134 251.27 100.701 251.251 102.402L251.332 113.547C251.336 114.168 251.341 114.79 251.347 115.411C251.352 115.977 251.319 116.535 251.555 116.986C251.981 116.888 254.24 115.063 254.701 114.687C255.647 113.917 256.729 112.745 257.543 111.83C259.991 109.079 262.754 104.785 264.191 100.969C264.464 100.242 264.824 99.4495 265.052 98.7662C265.321 97.9545 265.508 97.2347 265.787 96.3466C266.182 95.0919 266.889 92.6207 267.057 91.3888L267.787 86.0216C267.875 85.6789 267.805 85.8534 267.926 85.642C267.865 85.2222 267.915 79.142 268 78.9304C267.711 78.5187 267.917 79.283 267.745 78.2544C267.55 77.0914 267.868 75.5885 266.617 70.5823C265.235 65.0521 264.21 62.3469 261.441 57.8199C259.762 55.0759 259.607 55.271 257.933 53.4171C257.908 53.3893 257.824 53.286 257.805 53.2641L257.681 53.0913C257.356 52.9586 257.011 52.662 256.792 52.2461C256.613 52.2232 256.67 52.2659 256.555 52.1127C255.547 51.8455 254.73 50.7257 253.153 50.4348C252.974 51.6411 253.236 54.9831 253.013 56.1879L252.948 56.388Z" fill="black"/>
<path fill-rule="evenodd" clip-rule="evenodd" d="M9.02093 26.202L8.20872 45.2903L8.18393 46.2224L7.07141 46.9587C6.6788 47.1814 6.25726 47.51 5.70333 47.2633C5.05751 46.9757 4.55031 45.6856 4.44687 44.6524C4.2065 42.2528 4.65673 39.0032 4.73603 36.5818C4.77769 35.311 4.93538 33.8546 5.06374 32.6086C5.30553 30.2602 5.07854 23.4207 5.23129 22.1556C5.28256 21.7312 5.37964 21.6647 5.4139 21.3141C5.46011 20.8394 5.39924 20.7418 5.29372 20.5422C4.79508 20.8367 5.25842 20.4277 4.93292 21.0582C4.35861 22.1706 4.1089 22.5848 3.66893 23.9234C3.37717 24.8108 3.48048 24.7204 3.10734 25.0962C3.11578 25.4173 2.36834 27.7196 2.19572 28.419C1.93537 29.4735 1.71473 30.6641 1.34887 31.6094L0.632576 36.1144C-0.205454 40.7783 -0.365999 45.6633 1.11577 50.013C2.94083 55.371 6.33383 57.1296 6.89204 58.7342C7.24026 58.9481 7.55084 59.7887 7.7816 60.2939C8.94331 62.8374 8.51761 64.1477 8.44467 67.8341C8.37355 71.4345 8.14694 75.0166 7.94045 78.5352C7.52293 85.6474 7.61677 93.071 6.94253 99.9311C6.85518 100.819 6.91371 101.702 6.82235 102.574C6.41313 106.48 6.52436 106.552 6.55719 110.585C6.59081 114.684 6.22416 117.358 9.11632 118.596C10.3859 119.14 11.6917 118.623 12.5819 117.885C13.4643 117.153 13.8512 115.648 14.1341 114.188C14.5392 112.097 13.5814 96.2114 13.4069 92.8613C13.3224 91.2408 13.1705 89.352 13.0126 87.788C12.8443 86.1195 12.8146 84.1924 12.6542 82.4706C12.3303 78.9931 12.1118 75.6476 11.9636 72.0279C11.5798 62.6529 11.9655 62.1488 16.2256 55.2374C20.1009 48.9505 21.1273 47.2021 20.1409 38.7033C19.9515 37.072 19.7623 35.4707 19.4965 33.9425C19.3178 32.9149 18.5949 30.013 18.6909 29.3529C18.4107 29.0028 18.1378 27.749 17.9166 26.9719C17.6813 26.1449 16.5298 20.6266 15.8964 20.2946C15.673 20.9995 15.2883 33.0603 15.2668 34.8735C15.2489 36.3804 15.4389 45.1867 15.0988 46.1703C13.9675 49.4431 12.3871 47.3252 12.284 45.455C11.9276 38.9817 12.1097 33.6908 11.1893 26.6694C11.0538 25.6359 10.7965 24.3671 10.7144 23.3527C10.6599 22.6798 10.6142 20.5547 10.4237 20.0533C10.2856 19.6898 10.4452 20.0017 10.2234 19.7263C9.85454 20.248 9.84143 20.2644 9.75876 21.1982L9.34487 24.7371C9.3097 25.0164 9.29633 25.2885 9.25246 25.5355C9.12579 26.2503 9.04013 26.1716 9.02093 26.202Z" fill="#FB8C00"/>
<path fill-rule="evenodd" clip-rule="evenodd" d="M225.822 53.1147L224.834 54.6468C224.47 55.1286 224.154 55.4941 223.789 55.979C223.152 56.8259 222.453 58.2294 221.825 58.891L219.677 63.7187C217.28 69.9344 216.114 75.1396 216.125 82.8962C216.129 85.4559 216.335 87.674 216.831 89.937C217.387 92.473 217.286 93.0545 218.152 96.1482C218.864 98.6937 219.991 101.913 221.08 104.141C221.281 104.553 221.459 104.888 221.662 105.344C221.833 105.726 222.161 106.071 222.184 106.496C222.804 106.945 225.356 112.481 226.793 112.656C226.838 110.619 226.779 108.488 226.802 106.426C226.825 104.342 226.985 102.531 227.051 100.544C227.185 96.4843 227.083 92.3798 227.149 88.3142C227.282 80.0386 227.213 71.523 227.143 63.237C227.13 61.3296 227.054 59.4177 227.064 57.5087C227.072 56.1547 227.218 52.5658 226.838 51.7313C226.439 51.9132 226.506 51.8989 226.324 52.3768C226.264 52.533 226.212 52.7263 226.121 52.867C225.755 53.4306 226.091 53.0467 225.822 53.1147Z" fill="black"/>
<path fill-rule="evenodd" clip-rule="evenodd" d="M244.02 52.7102C244 52.7519 243.968 52.7592 243.954 52.8295L242.686 54.4322C241.366 56.2095 240.649 58.3919 240.04 60.9818C237.617 71.2841 242.544 75.6901 244.504 80.3278C245.19 81.9517 244.436 88.6886 244.27 91.182L244.184 92.3143C244.084 92.8376 244.176 92.4734 244.074 92.6899C244.265 93.736 244.014 94.9625 244.026 96.0548C243.937 102.062 243.592 108.023 243.607 114.073C243.594 115.633 243.375 117.578 243.505 119.036C244.383 119.745 246.22 118.889 247.187 119.17C247.212 119.143 247.253 119.063 247.268 119.097L248.016 118.655L247.447 96.6558C247.191 94.5926 247.096 95.9505 247.06 92.4935C247.053 91.81 247.109 91.069 247.008 90.4141C246.888 89.6345 246.758 89.4989 246.731 88.4753C246.686 86.8432 246.711 85.6036 246.551 84.0741C246.291 81.5856 246.525 80.1875 247.438 78.5482C247.79 77.9154 248.446 76.4058 248.845 76.0098C250.305 74.5604 249.259 75.4205 249.981 74.2037C250.572 73.2083 250.974 71.4133 251.154 70.146C251.406 68.3686 251.922 67.406 251.716 64.0278C251.419 59.1524 250.705 59.457 250.096 57.1088C249.906 56.9197 249.997 57.0054 249.844 56.6382C249.753 56.4172 249.709 56.2794 249.6 56.0563C249.406 55.6583 249.15 55.3556 249.11 55.0459C248.583 54.6351 248.287 54.1075 247.881 53.649C247.284 52.9749 246.867 52.998 246.564 52.4764C246.211 52.4333 245.643 52.2372 245.106 52.278C244.462 52.3268 244.369 52.7051 244.02 52.7102Z" fill="#FB8C00"/>
<path fill-rule="evenodd" clip-rule="evenodd" d="M234.624 53.0351C234.621 53.6005 233.433 56.591 233.026 58.4297C232.255 61.9107 231.319 67.6586 231.106 71.2888C230.99 73.245 230.735 73.864 230.703 76.3934L230.683 77.7914C230.669 77.9013 230.94 77.4795 230.54 78.3557C230.699 78.8754 230.691 85.3189 230.537 85.892L230.621 86.1672C230.668 86.4043 230.664 86.3218 230.694 86.609C231.082 90.386 230.146 91.42 232.943 95.822C234.316 97.981 233.757 97.1348 233.855 101.007C233.893 102.502 233.886 104.93 233.694 106.454L233.517 107.203L233.255 113.021C233.229 114.243 232.976 117.109 233.277 118.093C234.878 118.632 235.929 118.817 237.676 118.668C237.755 115.96 237.557 112.846 237.43 110.107C237.3 107.315 237.286 104.27 237.269 101.474C237.234 95.6128 236.938 89.8992 236.903 84.1349C236.867 78.2472 236.755 72.354 236.749 66.4864C236.746 63.5333 236.638 60.7568 236.634 57.8175C236.632 56.593 236.797 49.5089 236.671 49.1556C236.608 49.1046 236.8 48.8198 236.328 49.1324C236.143 49.2552 236.095 49.4425 236.011 49.6234C235.864 49.9429 235.717 50.3067 235.559 50.6968L234.804 52.7677C234.677 52.999 234.767 52.8719 234.624 53.0351Z" fill="#FB8C00"/>
</svg>
