<svg width="16" height="16" viewBox="0 0 16 16" fill="none" xmlns="http://www.w3.org/2000/svg">
<path d="M2.75 0C2.33437 0 2 0.334375 2 0.75C2 1.96563 2.73125 2.60625 3.22187 3.03437L3.25625 3.06562C3.76562 3.50937 4 3.74688 4 4.25C4 4.66563 4.33437 5 4.75 5C5.16563 5 5.5 4.66563 5.5 4.25C5.5 3.03437 4.76875 2.39375 4.27812 1.96563L4.24375 1.93438C3.73438 1.49063 3.5 1.25312 3.5 0.75C3.5 0.334375 3.16563 0 2.75 0ZM1 6C0.446875 6 0 6.44688 0 7V13C0 14.6562 1.34375 16 3 16H9C10.6562 16 12 14.6562 12 13H12.5C14.4344 13 16 11.4344 16 9.5C16 7.56563 14.4344 6 12.5 6H11H1ZM12 8H12.5C13.3281 8 14 8.67188 14 9.5C14 10.3281 13.3281 11 12.5 11H12V8ZM7 0.75C7 0.334375 6.66563 0 6.25 0C5.83437 0 5.5 0.334375 5.5 0.75C5.5 1.96563 6.23125 2.60625 6.72188 3.03437L6.75625 3.06562C7.26562 3.50937 7.5 3.74688 7.5 4.25C7.5 4.66563 7.83437 5 8.25 5C8.66562 5 9 4.66563 9 4.25C9 3.03437 8.26875 2.39375 7.77812 1.96563L7.74375 1.93438C7.23438 1.49063 7 1.25312 7 0.75Z" fill="#4B5563"/>
</svg>
