<svg width="16" height="16" viewBox="0 0 16 16" fill="none" xmlns="http://www.w3.org/2000/svg">
<path d="M5.30483 0.0279414C4.59233 -0.0220586 3.99546 0.465441 3.82046 1.11232L3.45171 2.49982C3.46733 2.49982 3.48608 2.49982 3.50171 2.49982C9.02358 2.49982 13.5017 6.97794 13.5017 12.4998C13.5017 12.5154 13.5017 12.5342 13.5017 12.5498L14.8892 12.1811C15.5392 12.0092 16.0236 11.4092 15.9736 10.6967C15.5798 4.98419 11.0173 0.421691 5.30483 0.0279414ZM12.4955 12.8186C12.4986 12.7123 12.5017 12.6061 12.5017 12.4998C12.5017 7.52794 8.47358 3.49982 3.50171 3.49982C3.39546 3.49982 3.28921 3.50294 3.18296 3.50607L0.0173343 15.3717C-0.0295407 15.5436 0.0204593 15.7279 0.145459 15.8529C0.270459 15.9779 0.454834 16.0279 0.626709 15.9811L12.4955 12.8186ZM5.50171 6.49982C5.76693 6.49982 6.02128 6.60517 6.20882 6.79271C6.39635 6.98025 6.50171 7.2346 6.50171 7.49982C6.50171 7.76503 6.39635 8.01939 6.20882 8.20692C6.02128 8.39446 5.76693 8.49982 5.50171 8.49982C5.23649 8.49982 4.98214 8.39446 4.7946 8.20692C4.60707 8.01939 4.50171 7.76503 4.50171 7.49982C4.50171 7.2346 4.60707 6.98025 4.7946 6.79271C4.98214 6.60517 5.23649 6.49982 5.50171 6.49982ZM7.50171 10.4998C7.50171 10.2346 7.60707 9.98025 7.7946 9.79271C7.98214 9.60517 8.23649 9.49982 8.50171 9.49982C8.76693 9.49982 9.02128 9.60517 9.20882 9.79271C9.39635 9.98025 9.50171 10.2346 9.50171 10.4998C9.50171 10.765 9.39635 11.0194 9.20882 11.2069C9.02128 11.3945 8.76693 11.4998 8.50171 11.4998C8.23649 11.4998 7.98214 11.3945 7.7946 11.2069C7.60707 11.0194 7.50171 10.765 7.50171 10.4998ZM3.00171 11.9998C3.00171 11.7346 3.10707 11.4802 3.2946 11.2927C3.48214 11.1052 3.73649 10.9998 4.00171 10.9998C4.26693 10.9998 4.52128 11.1052 4.70882 11.2927C4.89635 11.4802 5.00171 11.7346 5.00171 11.9998C5.00171 12.265 4.89635 12.5194 4.70882 12.7069C4.52128 12.8945 4.26693 12.9998 4.00171 12.9998C3.73649 12.9998 3.48214 12.8945 3.2946 12.7069C3.10707 12.5194 3.00171 12.265 3.00171 11.9998Z" fill="#4B5563"/>
</svg>
